<?xml version="1.0" encoding="utf-8"?>
<svg xmlns="http://www.w3.org/2000/svg" viewBox="0.0005 28.501 471.7011 414.7" width="800px" height="703.327px" preserveAspectRatio="none"><g id="object-2" transform="matrix(1.0000000000000002, 0, 0, 1.0000000000000002, 0, 3.552713678800501e-15)"><path d="M433.601,67.001c-24.7-24.7-57.4-38.2-92.3-38.2s-67.7,13.6-92.4,38.3l-12.9,12.9l-13.1-13.1 c-24.7-24.7-57.6-38.4-92.5-38.4c-34.8,0-67.6,13.6-92.2,38.2c-24.7,24.7-38.3,57.5-38.2,92.4c0,34.9,13.7,67.6,38.4,92.3 l187.8,187.8c2.6,2.6,6.1,4,9.5,4c3.4,0,6.9-1.3,9.5-3.9l188.2-187.5c24.7-24.7,38.3-57.5,38.3-92.4 C471.801,124.501,458.301,91.701,433.601,67.001z M414.401,232.701l-178.7,178l-178.3-178.3c-19.6-19.6-30.4-45.6-30.4-73.3 s10.7-53.7,30.3-73.2c19.5-19.5,45.5-30.3,73.1-30.3c27.7,0,53.8,10.8,73.4,30.4l22.6,22.6c5.3,5.3,13.8,5.3,19.1,0l22.4-22.4 c19.6-19.6,45.7-30.4,73.3-30.4c27.6,0,53.6,10.8,73.2,30.3c19.6,19.6,30.3,45.6,30.3,73.3 C444.801,187.101,434.001,213.101,414.401,232.701z" style="stroke-opacity: 0; fill: rgb(203, 0, 0);" id="object-1"/><g><path style="stroke: rgb(0, 0, 0); stroke-opacity: 0; fill: rgb(203, 0, 0);" d="M 85.867 44.068 C 75.546 44.068 63.337 48.819 57.497 54.66 C 53.226 58.931 53.425 64.784 49.175 69.034 C 42.965 75.244 36.002 81.451 30.261 87.191 C 27.226 90.226 28.463 97.689 25.722 100.43 C 25.042 101.111 25.977 103.958 25.344 104.591 C 23.747 106.188 24.681 111.684 23.074 113.291 C 17.171 119.195 18.205 130.974 14.752 137.879 C 10.652 146.081 14.533 156.853 10.213 165.493 C 8.844 168.231 9.593 176.598 10.97 177.975 C 12.485 179.49 10.574 184.01 12.105 185.541 C 15.821 189.257 15.035 198.306 18.535 201.806 C 23.704 206.975 30.211 214.566 34.044 222.233 C 38.309 230.762 48.967 234.507 55.605 241.146 C 61.185 246.725 65.224 256.439 71.493 262.708 C 79.784 271 88.666 280.637 97.593 289.565 C 109.32 301.291 114.032 318.778 128.233 325.878 C 131.64 327.582 134.245 332.647 137.312 335.713 C 142.918 341.32 149.414 347.816 155.468 353.87 C 157.051 355.452 158.588 359.024 160.386 359.923 C 161.873 360.666 161.499 363.684 162.277 364.462 C 166.771 368.955 170.335 378.136 176.273 381.106 C 184.078 385.008 193.127 394.933 200.104 401.91 C 205.082 406.889 214.975 409.594 220.152 414.772 C 223.192 417.811 224.679 423.08 227.718 426.12 C 228.789 427.192 231.185 426.939 232.257 428.011 C 232.541 428.295 237.233 429.844 238.309 428.768 C 240.256 426.82 245.492 427.637 247.388 425.741 C 252.377 420.753 259.356 415.664 264.032 410.989 C 274.352 400.669 278.586 384.331 288.997 373.919 C 297.143 365.771 304.338 358.956 312.828 350.466 C 316.632 346.662 317.774 340.806 322.663 338.361 C 336.205 331.591 348.746 319.844 359.355 309.235 C 365.235 303.355 367.007 295.152 373.351 288.808 C 398.856 263.303 419.98 236.126 443.331 212.776 C 447.646 208.461 449.83 202.494 454.301 198.024 C 459.092 193.232 457.705 176.097 457.705 168.14 C 457.705 165.942 458.577 159.555 457.327 158.305 C 455.623 156.601 458.029 150.308 456.192 148.47 C 454.431 146.71 456.348 140.304 454.679 138.635 C 450.533 134.49 450.691 121.581 447.87 115.939 C 447.178 114.555 447.575 110.726 446.357 109.509 C 444.56 107.712 444.849 102.705 442.574 100.43 C 438.384 96.24 435.082 89.607 431.983 83.408 C 427.924 75.29 418.726 70.529 413.448 65.251 C 408.485 60.289 396.929 62.351 392.265 57.686 C 390.979 56.4 387.052 57.391 385.834 56.173 C 382.739 53.078 374.435 50.852 370.703 48.986 C 369.635 48.452 365.813 48.635 365.029 47.851 C 360.341 43.163 348.785 43.312 340.442 43.312 C 333.816 43.312 317.252 41.158 313.585 44.825 C 312.189 46.221 307.484 44.873 306.019 46.338 C 304.639 47.719 300.327 46.356 298.832 47.851 C 296.221 50.462 291.836 52.484 288.997 53.903 C 284.519 56.142 276.189 57.633 273.11 60.712 C 269.79 64.032 264.128 64.02 261.005 67.143 C 257.133 71.015 256.718 78.239 253.062 81.895 C 250.119 84.838 246.824 89.453 245.118 92.865 C 244.333 94.435 235.484 104.035 233.392 101.943 C 227.857 96.408 224.869 85.855 219.018 80.004 C 214.767 75.753 207.511 71.902 203.13 67.521 C 200.392 64.783 193.265 65.599 190.647 62.982 C 183.952 56.287 174.231 52.996 167.573 46.338 C 164.174 42.939 152.03 46.304 148.281 42.555 C 146.061 40.335 141.406 42.522 138.446 41.042 C 134.187 38.913 125.066 38.016 120.668 38.016 C 119.16 38.016 112.17 37.057 111.211 38.016 C 109.831 39.396 105.262 37.912 103.646 39.529 C 102.45 40.725 98.305 39.574 97.215 40.664 C 95.402 42.477 83.288 44.825 80.571 44.825"/></g></g></svg>