<svg width="18" height="30" viewBox="0 0 18 30" fill="none" xmlns="http://www.w3.org/2000/svg">
<path d="M17.2406 13.2243L4.40476 0.734624C4.1654 0.501719 3.88124 0.31697 3.5685 0.190923C3.25576 0.0648763 2.92057 0 2.58206 0C1.89842 0 1.24277 0.264252 0.759366 0.734624C0.520007 0.967528 0.330135 1.24403 0.200595 1.54833C0.0710544 1.85263 0.00438237 2.17879 0.00438237 2.50816C0.00438237 3.17337 0.275958 3.81133 0.759366 4.2817L11.7982 14.9979L0.759366 25.714C0.518749 25.9463 0.327766 26.2225 0.197434 26.5269C0.0671021 26.8313 0 27.1578 0 27.4876C0 27.8173 0.0671021 28.1438 0.197434 28.4482C0.327766 28.7526 0.518749 29.0289 0.759366 29.2611C0.998019 29.4952 1.28195 29.6811 1.59478 29.8079C1.90762 29.9347 2.24316 30 2.58206 30C2.92096 30 3.2565 29.9347 3.56934 29.8079C3.88217 29.6811 4.1661 29.4952 4.40476 29.2611L17.2406 16.7714C17.4812 16.5392 17.6722 16.2629 17.8026 15.9585C17.9329 15.6541 18 15.3276 18 14.9979C18 14.6681 17.9329 14.3416 17.8026 14.0372C17.6722 13.7328 17.4812 13.4565 17.2406 13.2243Z" fill="#1559B7"/>
</svg>
