<svg width="18" height="30" viewBox="0 0 18 30" fill="none" xmlns="http://www.w3.org/2000/svg">
<path d="M0.759369 13.2243L13.5952 0.734624C13.8346 0.501719 14.1188 0.31697 14.4315 0.190923C14.7442 0.0648763 15.0794 0 15.4179 0C16.1016 0 16.7572 0.264252 17.2406 0.734624C17.48 0.967528 17.6699 1.24403 17.7994 1.54833C17.9289 1.85263 17.9956 2.17879 17.9956 2.50816C17.9956 3.17337 17.724 3.81133 17.2406 4.2817L6.20178 14.9979L17.2406 25.714C17.4813 25.9463 17.6722 26.2225 17.8026 26.5269C17.9329 26.8313 18 27.1578 18 27.4876C18 27.8173 17.9329 28.1438 17.8026 28.4482C17.6722 28.7526 17.4813 29.0289 17.2406 29.2611C17.002 29.4952 16.718 29.6811 16.4052 29.8079C16.0924 29.9347 15.7568 30 15.4179 30C15.079 30 14.7435 29.9347 14.4307 29.8079C14.1178 29.6811 13.8339 29.4952 13.5952 29.2611L0.759369 16.7714C0.518751 16.5392 0.327765 16.2629 0.197432 15.9585C0.0670986 15.6541 0 15.3276 0 14.9979C0 14.6681 0.0670986 14.3416 0.197432 14.0372C0.327765 13.7328 0.518751 13.4565 0.759369 13.2243Z" fill="#1559B7"/>
</svg>
